<svg width="512" height="512" viewBox="0 0 512 512" fill="none" xmlns="http://www.w3.org/2000/svg">
<path d="M399.01 247L384.629 283.564L438.88 304.902L453.261 268.337L399.01 247Z" fill="#EBEBEB"/>
<path d="M453.244 268.801C453.024 268.924 452.79 269.021 452.547 269.087L450.499 269.825L443.004 272.385L418.121 280.771L417.916 280.843L417.803 280.648L417.547 280.198L404.327 257.086L400.385 250.082L399.361 248.157C399.225 247.942 399.115 247.712 399.033 247.471C399.194 247.668 399.334 247.881 399.453 248.106L400.6 249.98L404.696 256.932L418.008 279.962L418.274 280.413L417.957 280.3L442.901 272.057L450.458 269.63L452.506 268.995C452.747 268.911 452.993 268.846 453.244 268.801Z" fill="#E0E0E0"/>
<path d="M384.604 284.037C384.543 283.914 390.594 280.504 398.121 276.429C405.647 272.353 411.822 269.148 411.894 269.261C411.965 269.373 405.913 272.793 398.377 276.869C390.84 280.945 384.676 284.17 384.604 284.037Z" fill="#E0E0E0"/>
<path d="M430.081 275.916C430.225 275.916 432.303 282.429 434.72 290.569C437.137 298.71 438.98 305.325 438.816 305.366C438.652 305.407 436.594 298.854 434.177 290.713C431.761 282.572 429.969 275.957 430.081 275.916Z" fill="#E0E0E0"/>
<path d="M219.697 400.836L167.539 426.875L185.089 462.029L237.247 435.99L219.697 400.836Z" fill="#EBEBEB"/>
<path d="M220.068 401.191C219.999 401.433 219.913 401.669 219.812 401.898L218.993 403.895C218.245 405.677 217.19 408.165 215.921 411.206L205.496 435.321L205.404 435.516H205.189L204.677 435.403L178.668 429.761L170.793 427.989L168.663 427.477C168.413 427.426 168.167 427.358 167.926 427.273C168.182 427.277 168.436 427.311 168.684 427.375L170.834 427.785L178.739 429.392L204.8 434.84L205.312 434.953L205.015 435.106C209.111 425.726 212.869 417.248 215.583 411.063C216.945 408.042 218.051 405.574 218.839 403.813C219.218 403.004 219.515 402.349 219.74 401.857C219.825 401.624 219.935 401.401 220.068 401.191Z" fill="#E0E0E0"/>
<path d="M185.457 462.387C185.313 462.387 186.829 455.577 188.836 447.252C190.843 438.927 192.604 432.199 192.737 432.24C192.87 432.281 191.365 439.05 189.358 447.375C187.351 455.7 185.59 462.418 185.457 462.387Z" fill="#E0E0E0"/>
<path d="M209.858 423.147C209.919 423.014 216.186 425.861 223.846 429.506C231.505 433.152 237.68 436.224 237.567 436.346C237.455 436.469 231.249 433.633 223.579 429.987C215.91 426.342 209.796 423.27 209.858 423.147Z" fill="#E0E0E0"/>
<path d="M128.277 254.669C124.664 242.323 120.343 230.196 115.333 218.348C114.023 215.18 112.729 212.061 111.452 208.989C110.162 205.917 108.892 202.845 107.469 199.988C104.699 194.425 101.622 189.02 98.253 183.798C95.0888 178.791 91.8837 174.152 88.8731 169.831C85.8626 165.51 82.934 161.557 80.1384 158.045C75.744 152.487 70.9161 147.286 65.7 142.49C63.8568 140.79 62.3823 139.51 61.3787 138.66L60.2216 137.698L59.8223 137.391C59.8223 137.391 59.9349 137.514 60.1909 137.749L61.3071 138.773C62.3311 139.654 63.7339 140.944 65.5567 142.664C70.712 147.508 75.4973 152.732 79.8722 158.29C82.6472 161.803 85.5247 165.786 88.5352 170.097C91.5458 174.408 94.6792 179.078 97.8639 184.085C101.2 189.296 104.246 194.687 106.988 200.234C108.411 203.121 109.671 206.132 110.951 209.214C112.231 212.296 113.521 215.358 114.832 218.563C119.834 230.392 124.163 242.494 127.795 254.813" fill="#E0E0E0"/>
<path d="M107.326 199.936C107.494 199.415 107.618 198.881 107.694 198.339C107.899 197.315 108.155 195.799 108.442 193.936C109.026 190.219 109.671 185.047 110.357 179.354C111.043 173.66 111.77 168.5 112.405 164.803C112.733 162.949 113.019 161.454 113.224 160.42C113.355 159.892 113.444 159.355 113.49 158.812C113.281 159.319 113.12 159.843 113.009 160.379C112.733 161.403 112.395 162.878 111.985 164.731C111.217 168.418 110.429 173.579 109.742 179.282C109.056 184.986 108.462 190.045 108.002 193.885C107.766 195.666 107.572 197.151 107.428 198.298C107.345 198.84 107.311 199.388 107.326 199.936Z" fill="#E0E0E0"/>
<path d="M58.6758 190.207C58.8404 190.248 59.0082 190.276 59.1775 190.289L60.6214 190.432C61.8707 190.555 63.6934 190.729 65.9155 191.005C70.3699 191.538 76.5139 192.5 83.2415 193.852C89.9692 195.204 95.9903 196.719 100.322 197.948C102.493 198.542 104.234 199.064 105.442 199.423L106.835 199.832C106.997 199.89 107.165 199.928 107.336 199.945C107.194 199.852 107.038 199.779 106.875 199.73L105.514 199.218C104.326 198.788 102.605 198.194 100.394 197.559C96.0825 196.238 90.0511 194.681 83.3132 193.309C76.5753 191.937 70.4006 191.057 65.9052 190.626C63.6627 190.391 61.8092 190.278 60.5804 190.227H59.1263C58.9779 190.199 58.8262 190.192 58.6758 190.207Z" fill="#E0E0E0"/>
<path d="M127.744 253.756C127.878 253.576 127.988 253.38 128.072 253.172C128.297 252.722 128.584 252.148 128.932 251.431C129.659 249.926 130.673 247.714 131.881 244.97C134.308 239.492 137.431 231.812 140.769 223.292C144.108 214.772 147.169 207.082 149.494 201.563L152.289 195.04L153.037 193.258C153.136 193.055 153.215 192.842 153.272 192.623C153.137 192.804 153.024 193 152.935 193.207L152.085 194.948C151.347 196.453 150.344 198.665 149.136 201.409C146.698 206.887 143.585 214.567 140.247 223.087C136.909 231.607 133.847 239.297 131.512 244.816L128.727 251.339L127.969 253.121C127.87 253.323 127.794 253.536 127.744 253.756Z" fill="#E0E0E0"/>
<path d="M63.2324 232.172C63.4398 232.275 63.6556 232.361 63.8775 232.428L65.7515 233.063L72.7044 235.367C78.5412 237.323 86.5694 240.118 95.4372 243.231C104.305 246.344 112.354 249.078 118.231 250.942C121.16 251.863 123.546 252.601 125.205 253.072L127.11 253.604C127.328 253.683 127.555 253.734 127.785 253.758C127.58 253.649 127.364 253.563 127.14 253.502L125.266 252.857L118.354 250.553C112.518 248.607 104.489 245.812 95.6215 242.699C86.7537 239.586 78.7051 236.852 72.8375 234.988C69.8987 234.056 67.5127 233.329 65.8539 232.858L63.9492 232.315C63.7168 232.239 63.4762 232.191 63.2324 232.172Z" fill="#E0E0E0"/>
<path d="M134.985 45.6699H77.2109C73.2295 45.6699 70.002 48.8975 70.002 52.8789V81.4178C70.002 85.3992 73.2295 88.6267 77.2109 88.6267H134.985C138.966 88.6267 142.194 85.3992 142.194 81.4178V52.8789C142.194 48.8975 138.966 45.6699 134.985 45.6699Z" fill="#E0E0E0"/>
<path d="M113.91 87.2637L130.98 102.419L132.383 87.5299" fill="#E0E0E0"/>
<path d="M96.7063 67.7692C96.7063 68.6016 96.4595 69.4153 95.9971 70.1074C95.5346 70.7995 94.8773 71.3389 94.1083 71.6575C93.3393 71.976 92.493 72.0594 91.6766 71.897C90.8602 71.7346 90.1103 71.3337 89.5217 70.7451C88.9332 70.1566 88.5323 69.4066 88.3699 68.5902C88.2075 67.7739 88.2909 66.9276 88.6094 66.1586C88.928 65.3896 89.4674 64.7323 90.1595 64.2698C90.8516 63.8074 91.6653 63.5605 92.4977 63.5605C93.6139 63.5605 94.6844 64.004 95.4737 64.7932C96.2629 65.5825 96.7063 66.653 96.7063 67.7692Z" fill="white"/>
<path d="M111.165 67.7692C111.165 68.602 110.918 69.4161 110.455 70.1085C109.992 70.8008 109.335 71.3402 108.565 71.6584C107.795 71.9767 106.949 72.0594 106.132 71.8962C105.315 71.733 104.565 71.3311 103.977 70.7415C103.389 70.1519 102.989 69.401 102.828 68.584C102.666 67.7669 102.751 66.9204 103.071 66.1515C103.391 65.3827 103.932 64.7261 104.626 64.2649C105.319 63.8036 106.134 63.5585 106.967 63.5606C107.519 63.5606 108.066 63.6695 108.576 63.8811C109.086 64.0928 109.549 64.4029 109.939 64.7939C110.329 65.1848 110.638 65.6488 110.849 66.1594C111.059 66.67 111.167 67.217 111.165 67.7692Z" fill="white"/>
<path d="M125.636 67.7692C125.636 68.602 125.389 69.4161 124.926 70.1085C124.463 70.8008 123.805 71.3402 123.036 71.6584C122.266 71.9767 121.419 72.0594 120.603 71.8962C119.786 71.733 119.036 71.3311 118.448 70.7415C117.86 70.1519 117.46 69.401 117.298 68.584C117.137 67.7669 117.222 66.9204 117.542 66.1515C117.862 65.3827 118.403 64.7261 119.097 64.2649C119.79 63.8036 120.605 63.5585 121.438 63.5606C122.552 63.5633 123.62 64.0079 124.407 64.7969C125.194 65.5858 125.636 66.6548 125.636 67.7692Z" fill="white"/>
<path d="M344.09 91.752L329.709 128.316L383.96 149.654L398.341 113.089L344.09 91.752Z" fill="#EBEBEB"/>
<path d="M398.337 113.562C398.117 113.687 397.884 113.787 397.641 113.859L395.593 114.586L388.097 117.177L363.204 125.564L362.999 125.635L362.887 125.441L362.631 124.99L349.4 101.878C347.762 98.9499 346.41 96.5639 345.448 94.8436L344.424 92.9185C344.288 92.7019 344.175 92.472 344.086 92.2324C344.249 92.4298 344.393 92.6424 344.516 92.8673L345.653 94.7412C346.677 96.4411 348.039 98.8372 349.749 101.694L363.061 124.724L363.317 125.185L363.009 125.062L387.944 116.87L395.511 114.433L397.559 113.798C397.812 113.7 398.072 113.621 398.337 113.562Z" fill="#E0E0E0"/>
<path d="M329.729 128.799C329.657 128.676 335.709 125.266 343.236 121.19C350.762 117.115 356.937 113.91 357.009 114.022C357.08 114.135 351.028 117.555 343.492 121.631C335.955 125.706 329.729 128.932 329.729 128.799Z" fill="#E0E0E0"/>
<path d="M375.184 120.678C375.317 120.678 377.396 127.201 379.812 135.331C382.229 143.462 384.082 150.097 383.908 150.138C383.734 150.179 381.696 143.615 379.28 135.485C376.863 127.354 375.04 120.719 375.184 120.678Z" fill="#E0E0E0"/>
<path d="M264.089 265.136C271.384 265.136 277.298 259.222 277.298 251.926C277.298 244.631 271.384 238.717 264.089 238.717C256.793 238.717 250.879 244.631 250.879 251.926C250.879 259.222 256.793 265.136 264.089 265.136Z" fill="#FF725E"/>
<path d="M309.555 265.136C316.851 265.136 322.765 259.222 322.765 251.926C322.765 244.631 316.851 238.717 309.555 238.717C302.26 238.717 296.346 244.631 296.346 251.926C296.346 259.222 302.26 265.136 309.555 265.136Z" fill="#FF725E"/>
<path d="M397.475 183.574C397.731 183.52 397.993 183.503 398.253 183.522C399.021 183.526 399.787 183.612 400.537 183.778C401.782 184.038 402.98 184.487 404.09 185.11C405.632 185.974 406.983 187.141 408.063 188.54C409.454 190.325 410.354 192.443 410.674 194.684C410.771 195.311 410.825 195.944 410.838 196.578C410.838 197.213 410.838 197.848 410.838 198.504C410.838 199.814 410.838 201.186 410.838 202.6C410.889 208.283 410.93 214.816 410.992 222.137C411.063 236.791 411.145 254.609 411.248 275.119C411.248 280.246 411.268 285.537 411.309 290.991C411.309 293.722 411.309 296.49 411.309 299.296C411.309 300.699 411.309 302.112 411.309 303.535C411.309 304.242 411.309 304.959 411.309 305.675C411.297 306.451 411.228 307.224 411.104 307.99C410.574 311.173 408.959 314.075 406.532 316.203C404.106 318.331 401.018 319.553 397.792 319.663L379.135 319.725L380.241 318.701C379.033 331.818 377.763 345.673 376.432 360.05L376.227 362.292L374.486 360.859L324.402 319.592L325.221 319.878L222.596 319.929H198.501C197.682 319.929 196.935 319.929 196.064 319.929C193.862 319.879 191.701 319.314 189.756 318.279C187.811 317.244 186.135 315.768 184.862 313.97C183.848 312.543 183.102 310.943 182.66 309.249C182.281 307.605 182.126 305.917 182.199 304.232C182.199 301.091 182.199 297.958 182.199 294.831C182.199 288.598 182.199 282.41 182.199 276.266C182.199 251.69 182.251 228.036 182.271 205.477C182.271 202.661 182.271 199.855 182.271 197.08C182.232 195.575 182.421 194.073 182.834 192.626C183.254 191.169 183.901 189.787 184.749 188.53C186.454 186.054 188.904 184.185 191.743 183.195C193.134 182.699 194.597 182.432 196.075 182.406C197.467 182.406 198.768 182.406 200.119 182.406L231.208 182.468L287.006 182.632L367.81 183.051L389.774 183.307L395.488 183.44C396.14 183.427 396.791 183.471 397.434 183.574C396.791 183.683 396.14 183.727 395.488 183.707L389.774 183.84L367.81 184.096L287.006 184.516L231.208 184.68L200.119 184.741C198.798 184.741 197.416 184.741 196.126 184.741C194.896 184.763 193.678 184.988 192.521 185.407C190.171 186.238 188.145 187.794 186.736 189.851C185.311 191.963 184.594 194.473 184.688 197.019C184.688 199.794 184.688 202.6 184.688 205.416C184.688 227.944 184.739 251.649 184.77 276.205C184.77 282.349 184.77 288.537 184.77 294.77V304.17C184.695 305.635 184.826 307.104 185.159 308.532C185.695 310.613 186.799 312.504 188.349 313.993C189.899 315.481 191.833 316.509 193.934 316.96C194.636 317.107 195.348 317.192 196.064 317.216C196.791 317.216 197.641 317.216 198.43 317.216H222.719L325.344 317.267H325.805L326.163 317.564L376.135 358.964L374.179 359.773C375.561 345.437 376.892 331.552 378.162 318.445L378.254 317.421H379.278H397.874C400.618 317.339 403.25 316.311 405.322 314.509C407.394 312.708 408.778 310.245 409.241 307.539C409.345 306.885 409.403 306.225 409.415 305.563C409.415 304.846 409.415 304.129 409.415 303.423C409.415 301.999 409.415 300.586 409.415 299.183C409.415 296.377 409.415 293.609 409.415 290.879C409.415 285.417 409.435 280.127 409.476 275.007C409.579 254.527 409.66 236.678 409.732 222.025C409.794 214.703 409.835 208.17 409.886 202.487C409.886 201.074 409.886 199.702 409.886 198.391C409.886 197.736 409.886 197.101 409.886 196.466C409.885 195.87 409.847 195.275 409.773 194.684C409.51 192.575 408.71 190.569 407.449 188.857C406.454 187.493 405.197 186.341 403.752 185.468C402.701 184.827 401.562 184.341 400.373 184.024C398.53 183.615 397.475 183.676 397.475 183.574Z" fill="#FF725E"/>
<path d="M113.305 249.314H312.76C316.399 249.314 319.889 250.76 322.462 253.333C325.036 255.907 326.481 259.397 326.481 263.036V370.617C326.481 374.257 325.036 377.747 322.462 380.32C319.889 382.893 316.399 384.339 312.76 384.339H113.305C109.669 384.339 106.181 382.895 103.61 380.323C101.038 377.752 99.5938 374.264 99.5938 370.628V263.036C99.5924 261.235 99.9461 259.451 100.635 257.786C101.323 256.121 102.333 254.608 103.606 253.334C104.879 252.06 106.391 251.049 108.056 250.359C109.72 249.669 111.504 249.314 113.305 249.314Z" fill="#FF725E"/>
<path d="M237.607 380.018L291.255 427.654L295.658 380.868" fill="#FF725E"/>
<path d="M170.311 331.941C177.607 331.941 183.521 326.027 183.521 318.731C183.521 311.436 177.607 305.521 170.311 305.521C163.016 305.521 157.102 311.436 157.102 318.731C157.102 326.027 163.016 331.941 170.311 331.941Z" fill="white"/>
<path d="M215.778 331.941C223.073 331.941 228.988 326.027 228.988 318.731C228.988 311.436 223.073 305.521 215.778 305.521C208.482 305.521 202.568 311.436 202.568 318.731C202.568 326.027 208.482 331.941 215.778 331.941Z" fill="white"/>
<path d="M261.243 331.941C268.538 331.941 274.452 326.027 274.452 318.731C274.452 311.436 268.538 305.521 261.243 305.521C253.947 305.521 248.033 311.436 248.033 318.731C248.033 326.027 253.947 331.941 261.243 331.941Z" fill="white"/>
<g opacity="0.3">
<path d="M318.014 249.857L296.694 249.232H131.83C145.531 262.862 165.12 270.153 184.361 271.832C203.602 273.511 222.946 270.583 241.982 267.286C261.018 263.988 280.136 260.302 299.459 260.445C303.555 260.445 307.764 260.65 311.552 259.134C315.341 257.619 318.577 253.953 318.014 249.857Z" fill="black"/>
</g>
<path d="M355.02 265.136C362.316 265.136 368.23 259.222 368.23 251.926C368.23 244.631 362.316 238.717 355.02 238.717C347.725 238.717 341.811 244.631 341.811 251.926C341.811 259.222 347.725 265.136 355.02 265.136Z" fill="#FF725E"/>
</svg>
